<?xml version="1.0" encoding="UTF-8" standalone="no"?>
<!DOCTYPE svg PUBLIC "-//W3C//DTD SVG 1.1//EN"
 "http://www.w3.org/Graphics/SVG/1.1/DTD/svg11.dtd">
<!-- Generated by graphviz version 2.44.1 (20200629.0846)
 -->
<!-- Pages: 1 -->
<svg width="1353pt" height="210pt"
 viewBox="0.00 0.00 1352.99 210.00" xmlns="http://www.w3.org/2000/svg" xmlns:xlink="http://www.w3.org/1999/xlink">
<g id="graph0" class="graph" transform="scale(1 1) rotate(0) translate(4 206)">
<polygon fill="white" stroke="transparent" points="-4,4 -4,-206 1348.99,-206 1348.99,4 -4,4"/>
<!-- 2709758297088 -->
<g id="node1" class="node">
<title>2709758297088</title>
<polygon fill="none" stroke="black" points="290.5,-165.5 290.5,-201.5 458.5,-201.5 458.5,-165.5 290.5,-165.5"/>
<text text-anchor="middle" x="331" y="-179.8" font-family="Times New Roman,serif" font-size="14.00">data 0.0665</text>
<polyline fill="none" stroke="black" points="371.5,-165.5 371.5,-201.5 "/>
<text text-anchor="middle" x="415" y="-179.8" font-family="Times New Roman,serif" font-size="14.00">grad &#45;2.0000</text>
</g>
<!-- 2709758299632* -->
<g id="node15" class="node">
<title>2709758299632*</title>
<ellipse fill="none" stroke="black" cx="522" cy="-128.5" rx="27" ry="18"/>
<text text-anchor="middle" x="522" y="-124.8" font-family="Times New Roman,serif" font-size="14.00">*</text>
</g>
<!-- 2709758297088&#45;&gt;2709758299632* -->
<g id="edge9" class="edge">
<title>2709758297088&#45;&gt;2709758299632*</title>
<path fill="none" stroke="black" d="M434.19,-165.44C442.57,-162.59 451.04,-159.57 459,-156.5 469.44,-152.47 480.64,-147.59 490.61,-143.04"/>
<polygon fill="black" stroke="black" points="492.13,-146.19 499.73,-138.81 489.18,-139.84 492.13,-146.19"/>
</g>
<!-- 2709758298672 -->
<g id="node2" class="node">
<title>2709758298672</title>
<polygon fill="none" stroke="black" points="292.5,-55.5 292.5,-91.5 456.5,-91.5 456.5,-55.5 292.5,-55.5"/>
<text text-anchor="middle" x="333" y="-69.8" font-family="Times New Roman,serif" font-size="14.00">data 0.2355</text>
<polyline fill="none" stroke="black" points="373.5,-55.5 373.5,-91.5 "/>
<text text-anchor="middle" x="415" y="-69.8" font-family="Times New Roman,serif" font-size="14.00">grad 1.0000</text>
</g>
<!-- 2709758299248+ -->
<g id="node6" class="node">
<title>2709758299248+</title>
<ellipse fill="none" stroke="black" cx="522" cy="-73.5" rx="27" ry="18"/>
<text text-anchor="middle" x="522" y="-69.8" font-family="Times New Roman,serif" font-size="14.00">+</text>
</g>
<!-- 2709758298672&#45;&gt;2709758299248+ -->
<g id="edge14" class="edge">
<title>2709758298672&#45;&gt;2709758299248+</title>
<path fill="none" stroke="black" d="M456.76,-73.5C466.57,-73.5 476.17,-73.5 484.84,-73.5"/>
<polygon fill="black" stroke="black" points="484.89,-77 494.89,-73.5 484.89,-70 484.89,-77"/>
</g>
<!-- 2709758298672* -->
<g id="node3" class="node">
<title>2709758298672*</title>
<ellipse fill="none" stroke="black" cx="227" cy="-73.5" rx="27" ry="18"/>
<text text-anchor="middle" x="227" y="-69.8" font-family="Times New Roman,serif" font-size="14.00">*</text>
</g>
<!-- 2709758298672*&#45;&gt;2709758298672 -->
<g id="edge1" class="edge">
<title>2709758298672*&#45;&gt;2709758298672</title>
<path fill="none" stroke="black" d="M254.01,-73.5C262.23,-73.5 271.82,-73.5 281.94,-73.5"/>
<polygon fill="black" stroke="black" points="282.19,-77 292.19,-73.5 282.19,-70 282.19,-77"/>
</g>
<!-- 2709758297184 -->
<g id="node4" class="node">
<title>2709758297184</title>
<polygon fill="none" stroke="black" points="0,-83.5 0,-119.5 164,-119.5 164,-83.5 0,-83.5"/>
<text text-anchor="middle" x="40.5" y="-97.8" font-family="Times New Roman,serif" font-size="14.00">data 1.0000</text>
<polyline fill="none" stroke="black" points="81,-83.5 81,-119.5 "/>
<text text-anchor="middle" x="122.5" y="-97.8" font-family="Times New Roman,serif" font-size="14.00">grad 0.0000</text>
</g>
<!-- 2709758297184&#45;&gt;2709758298672* -->
<g id="edge10" class="edge">
<title>2709758297184&#45;&gt;2709758298672*</title>
<path fill="none" stroke="black" d="M164.11,-85.62C173.51,-83.78 182.68,-81.98 190.96,-80.36"/>
<polygon fill="black" stroke="black" points="191.78,-83.77 200.92,-78.41 190.43,-76.9 191.78,-83.77"/>
</g>
<!-- 2709758299248 -->
<g id="node5" class="node">
<title>2709758299248</title>
<polygon fill="none" stroke="black" points="587.5,-55.5 587.5,-91.5 751.5,-91.5 751.5,-55.5 587.5,-55.5"/>
<text text-anchor="middle" x="628" y="-69.8" font-family="Times New Roman,serif" font-size="14.00">data 0.2355</text>
<polyline fill="none" stroke="black" points="668.5,-55.5 668.5,-91.5 "/>
<text text-anchor="middle" x="710" y="-69.8" font-family="Times New Roman,serif" font-size="14.00">grad 1.0000</text>
</g>
<!-- 2709758299584+ -->
<g id="node13" class="node">
<title>2709758299584+</title>
<ellipse fill="none" stroke="black" cx="817" cy="-100.5" rx="27" ry="18"/>
<text text-anchor="middle" x="817" y="-96.8" font-family="Times New Roman,serif" font-size="14.00">+</text>
</g>
<!-- 2709758299248&#45;&gt;2709758299584+ -->
<g id="edge6" class="edge">
<title>2709758299248&#45;&gt;2709758299584+</title>
<path fill="none" stroke="black" d="M751.76,-88.58C761.96,-90.47 771.93,-92.32 780.86,-93.98"/>
<polygon fill="black" stroke="black" points="780.35,-97.44 790.82,-95.83 781.62,-90.56 780.35,-97.44"/>
</g>
<!-- 2709758299248+&#45;&gt;2709758299248 -->
<g id="edge2" class="edge">
<title>2709758299248+&#45;&gt;2709758299248</title>
<path fill="none" stroke="black" d="M549.01,-73.5C557.23,-73.5 566.82,-73.5 576.94,-73.5"/>
<polygon fill="black" stroke="black" points="577.19,-77 587.19,-73.5 577.19,-70 577.19,-77"/>
</g>
<!-- 2709758296704 -->
<g id="node7" class="node">
<title>2709758296704</title>
<polygon fill="none" stroke="black" points="292.5,-0.5 292.5,-36.5 456.5,-36.5 456.5,-0.5 292.5,-0.5"/>
<text text-anchor="middle" x="333" y="-14.8" font-family="Times New Roman,serif" font-size="14.00">data 0.0000</text>
<polyline fill="none" stroke="black" points="373.5,-0.5 373.5,-36.5 "/>
<text text-anchor="middle" x="415" y="-14.8" font-family="Times New Roman,serif" font-size="14.00">grad 1.0000</text>
</g>
<!-- 2709758296704&#45;&gt;2709758299248+ -->
<g id="edge12" class="edge">
<title>2709758296704&#45;&gt;2709758299248+</title>
<path fill="none" stroke="black" d="M434.19,-36.56C442.57,-39.41 451.04,-42.43 459,-45.5 469.44,-49.53 480.64,-54.41 490.61,-58.96"/>
<polygon fill="black" stroke="black" points="489.18,-62.16 499.73,-63.19 492.13,-55.81 489.18,-62.16"/>
</g>
<!-- 2709758299296 -->
<g id="node8" class="node">
<title>2709758299296</title>
<polygon fill="none" stroke="black" points="1180.99,-82.5 1180.99,-118.5 1344.99,-118.5 1344.99,-82.5 1180.99,-82.5"/>
<text text-anchor="middle" x="1221.49" y="-96.8" font-family="Times New Roman,serif" font-size="14.00">data 0.1024</text>
<polyline fill="none" stroke="black" points="1261.99,-82.5 1261.99,-118.5 "/>
<text text-anchor="middle" x="1303.49" y="-96.8" font-family="Times New Roman,serif" font-size="14.00">grad 1.0000</text>
</g>
<!-- 2709758299296ReLU -->
<g id="node9" class="node">
<title>2709758299296ReLU</title>
<ellipse fill="none" stroke="black" cx="1112.5" cy="-100.5" rx="32.49" ry="18"/>
<text text-anchor="middle" x="1112.5" y="-96.8" font-family="Times New Roman,serif" font-size="14.00">ReLU</text>
</g>
<!-- 2709758299296ReLU&#45;&gt;2709758299296 -->
<g id="edge3" class="edge">
<title>2709758299296ReLU&#45;&gt;2709758299296</title>
<path fill="none" stroke="black" d="M1145.35,-100.5C1153.03,-100.5 1161.62,-100.5 1170.56,-100.5"/>
<polygon fill="black" stroke="black" points="1170.77,-104 1180.77,-100.5 1170.77,-97 1170.77,-104"/>
</g>
<!-- 2709758297760 -->
<g id="node10" class="node">
<title>2709758297760</title>
<polygon fill="none" stroke="black" points="0,-28.5 0,-64.5 164,-64.5 164,-28.5 0,-28.5"/>
<text text-anchor="middle" x="40.5" y="-42.8" font-family="Times New Roman,serif" font-size="14.00">data 0.2355</text>
<polyline fill="none" stroke="black" points="81,-28.5 81,-64.5 "/>
<text text-anchor="middle" x="122.5" y="-42.8" font-family="Times New Roman,serif" font-size="14.00">grad 1.0000</text>
</g>
<!-- 2709758297760&#45;&gt;2709758298672* -->
<g id="edge13" class="edge">
<title>2709758297760&#45;&gt;2709758298672*</title>
<path fill="none" stroke="black" d="M164.11,-61.81C173.51,-63.59 182.68,-65.32 190.96,-66.88"/>
<polygon fill="black" stroke="black" points="190.44,-70.35 200.92,-68.76 191.74,-63.47 190.44,-70.35"/>
</g>
<!-- 2709758296800 -->
<g id="node11" class="node">
<title>2709758296800</title>
<polygon fill="none" stroke="black" points="290,-110.5 290,-146.5 459,-146.5 459,-110.5 290,-110.5"/>
<text text-anchor="middle" x="333" y="-124.8" font-family="Times New Roman,serif" font-size="14.00">data &#45;2.0000</text>
<polyline fill="none" stroke="black" points="376,-110.5 376,-146.5 "/>
<text text-anchor="middle" x="417.5" y="-124.8" font-family="Times New Roman,serif" font-size="14.00">grad 0.0000</text>
</g>
<!-- 2709758296800&#45;&gt;2709758299632* -->
<g id="edge7" class="edge">
<title>2709758296800&#45;&gt;2709758299632*</title>
<path fill="none" stroke="black" d="M459.29,-128.5C468.15,-128.5 476.79,-128.5 484.66,-128.5"/>
<polygon fill="black" stroke="black" points="484.87,-132 494.87,-128.5 484.87,-125 484.87,-132"/>
</g>
<!-- 2709758299584 -->
<g id="node12" class="node">
<title>2709758299584</title>
<polygon fill="none" stroke="black" points="880,-82.5 880,-118.5 1044,-118.5 1044,-82.5 880,-82.5"/>
<text text-anchor="middle" x="920.5" y="-96.8" font-family="Times New Roman,serif" font-size="14.00">data 0.1024</text>
<polyline fill="none" stroke="black" points="961,-82.5 961,-118.5 "/>
<text text-anchor="middle" x="1002.5" y="-96.8" font-family="Times New Roman,serif" font-size="14.00">grad 1.0000</text>
</g>
<!-- 2709758299584&#45;&gt;2709758299296ReLU -->
<g id="edge11" class="edge">
<title>2709758299584&#45;&gt;2709758299296ReLU</title>
<path fill="none" stroke="black" d="M1044.2,-100.5C1052.96,-100.5 1061.58,-100.5 1069.59,-100.5"/>
<polygon fill="black" stroke="black" points="1069.71,-104 1079.71,-100.5 1069.71,-97 1069.71,-104"/>
</g>
<!-- 2709758299584+&#45;&gt;2709758299584 -->
<g id="edge4" class="edge">
<title>2709758299584+&#45;&gt;2709758299584</title>
<path fill="none" stroke="black" d="M844.23,-100.5C851.81,-100.5 860.54,-100.5 869.75,-100.5"/>
<polygon fill="black" stroke="black" points="869.89,-104 879.89,-100.5 869.89,-97 869.89,-104"/>
</g>
<!-- 2709758299632 -->
<g id="node14" class="node">
<title>2709758299632</title>
<polygon fill="none" stroke="black" points="585,-110.5 585,-146.5 754,-146.5 754,-110.5 585,-110.5"/>
<text text-anchor="middle" x="628" y="-124.8" font-family="Times New Roman,serif" font-size="14.00">data &#45;0.1331</text>
<polyline fill="none" stroke="black" points="671,-110.5 671,-146.5 "/>
<text text-anchor="middle" x="712.5" y="-124.8" font-family="Times New Roman,serif" font-size="14.00">grad 1.0000</text>
</g>
<!-- 2709758299632&#45;&gt;2709758299584+ -->
<g id="edge8" class="edge">
<title>2709758299632&#45;&gt;2709758299584+</title>
<path fill="none" stroke="black" d="M754.29,-112.37C763.62,-110.58 772.7,-108.83 780.9,-107.25"/>
<polygon fill="black" stroke="black" points="781.61,-110.68 790.77,-105.36 780.29,-103.81 781.61,-110.68"/>
</g>
<!-- 2709758299632*&#45;&gt;2709758299632 -->
<g id="edge5" class="edge">
<title>2709758299632*&#45;&gt;2709758299632</title>
<path fill="none" stroke="black" d="M549.01,-128.5C556.58,-128.5 565.31,-128.5 574.54,-128.5"/>
<polygon fill="black" stroke="black" points="574.72,-132 584.72,-128.5 574.72,-125 574.72,-132"/>
</g>
</g>
</svg>
