<?xml version="1.0" encoding="UTF-8" standalone="no"?>
<!DOCTYPE svg PUBLIC "-//W3C//DTD SVG 1.1//EN"
 "http://www.w3.org/Graphics/SVG/1.1/DTD/svg11.dtd">
<!-- Generated by graphviz version 2.50.0 (0)
 -->
<!-- Pages: 1 -->
<svg width="1343pt" height="210pt"
 viewBox="0.00 0.00 1342.99 210.00" xmlns="http://www.w3.org/2000/svg" xmlns:xlink="http://www.w3.org/1999/xlink">
<g id="graph0" class="graph" transform="scale(1 1) rotate(0) translate(4 206)">
<polygon fill="white" stroke="transparent" points="-4,4 -4,-206 1338.99,-206 1338.99,4 -4,4"/>
<!-- 139963525464656 -->
<g id="node1" class="node">
<title>139963525464656</title>
<polygon fill="none" stroke="black" points="290.5,-165.5 290.5,-201.5 452.5,-201.5 452.5,-165.5 290.5,-165.5"/>
<text text-anchor="middle" x="330.5" y="-179.8" font-family="Times,serif" font-size="14.00">data 0.0000</text>
<polyline fill="none" stroke="black" points="370.5,-165.5 370.5,-201.5 "/>
<text text-anchor="middle" x="411.5" y="-179.8" font-family="Times,serif" font-size="14.00">grad 1.0000</text>
</g>
<!-- 139963525464752+ -->
<g id="node6" class="node">
<title>139963525464752+</title>
<ellipse fill="none" stroke="black" cx="518" cy="-128.5" rx="27" ry="18"/>
<text text-anchor="middle" x="518" y="-124.8" font-family="Times,serif" font-size="14.00">+</text>
</g>
<!-- 139963525464656&#45;&gt;139963525464752+ -->
<g id="edge6" class="edge">
<title>139963525464656&#45;&gt;139963525464752+</title>
<path fill="none" stroke="black" d="M430.48,-165.4C438.76,-162.56 447.13,-159.55 455,-156.5 465.43,-152.45 476.63,-147.57 486.6,-143.02"/>
<polygon fill="black" stroke="black" points="488.12,-146.17 495.72,-138.8 485.18,-139.82 488.12,-146.17"/>
</g>
<!-- 139963525465232 -->
<g id="node2" class="node">
<title>139963525465232</title>
<polygon fill="none" stroke="black" points="874,-82.5 874,-118.5 1036,-118.5 1036,-82.5 874,-82.5"/>
<text text-anchor="middle" x="914" y="-96.8" font-family="Times,serif" font-size="14.00">data 0.1024</text>
<polyline fill="none" stroke="black" points="954,-82.5 954,-118.5 "/>
<text text-anchor="middle" x="995" y="-96.8" font-family="Times,serif" font-size="14.00">grad 1.0000</text>
</g>
<!-- 139963525465328ReLU -->
<g id="node8" class="node">
<title>139963525465328ReLU</title>
<ellipse fill="none" stroke="black" cx="1104.5" cy="-100.5" rx="32.49" ry="18"/>
<text text-anchor="middle" x="1104.5" y="-96.8" font-family="Times,serif" font-size="14.00">ReLU</text>
</g>
<!-- 139963525465232&#45;&gt;139963525465328ReLU -->
<g id="edge8" class="edge">
<title>139963525465232&#45;&gt;139963525465328ReLU</title>
<path fill="none" stroke="black" d="M1036.22,-100.5C1044.96,-100.5 1053.58,-100.5 1061.58,-100.5"/>
<polygon fill="black" stroke="black" points="1061.69,-104 1071.69,-100.5 1061.69,-97 1061.69,-104"/>
</g>
<!-- 139963525465232+ -->
<g id="node3" class="node">
<title>139963525465232+</title>
<ellipse fill="none" stroke="black" cx="811" cy="-100.5" rx="27" ry="18"/>
<text text-anchor="middle" x="811" y="-96.8" font-family="Times,serif" font-size="14.00">+</text>
</g>
<!-- 139963525465232+&#45;&gt;139963525465232 -->
<g id="edge1" class="edge">
<title>139963525465232+&#45;&gt;139963525465232</title>
<path fill="none" stroke="black" d="M838.04,-100.5C845.63,-100.5 854.38,-100.5 863.6,-100.5"/>
<polygon fill="black" stroke="black" points="863.76,-104 873.76,-100.5 863.76,-97 863.76,-104"/>
</g>
<!-- 139963525470368 -->
<g id="node4" class="node">
<title>139963525470368</title>
<polygon fill="none" stroke="black" points="0,-138.5 0,-174.5 162,-174.5 162,-138.5 0,-138.5"/>
<text text-anchor="middle" x="40" y="-152.8" font-family="Times,serif" font-size="14.00">data 1.0000</text>
<polyline fill="none" stroke="black" points="80,-138.5 80,-174.5 "/>
<text text-anchor="middle" x="121" y="-152.8" font-family="Times,serif" font-size="14.00">grad 0.2355</text>
</g>
<!-- 139963525464416* -->
<g id="node12" class="node">
<title>139963525464416*</title>
<ellipse fill="none" stroke="black" cx="225" cy="-128.5" rx="27" ry="18"/>
<text text-anchor="middle" x="225" y="-124.8" font-family="Times,serif" font-size="14.00">*</text>
</g>
<!-- 139963525470368&#45;&gt;139963525464416* -->
<g id="edge9" class="edge">
<title>139963525470368&#45;&gt;139963525464416*</title>
<path fill="none" stroke="black" d="M162.13,-140.7C171.51,-138.85 180.67,-137.04 188.94,-135.41"/>
<polygon fill="black" stroke="black" points="189.77,-138.82 198.9,-133.45 188.42,-131.95 189.77,-138.82"/>
</g>
<!-- 139963525464752 -->
<g id="node5" class="node">
<title>139963525464752</title>
<polygon fill="none" stroke="black" points="583.5,-110.5 583.5,-146.5 745.5,-146.5 745.5,-110.5 583.5,-110.5"/>
<text text-anchor="middle" x="623.5" y="-124.8" font-family="Times,serif" font-size="14.00">data 0.2355</text>
<polyline fill="none" stroke="black" points="663.5,-110.5 663.5,-146.5 "/>
<text text-anchor="middle" x="704.5" y="-124.8" font-family="Times,serif" font-size="14.00">grad 1.0000</text>
</g>
<!-- 139963525464752&#45;&gt;139963525465232+ -->
<g id="edge10" class="edge">
<title>139963525464752&#45;&gt;139963525465232+</title>
<path fill="none" stroke="black" d="M745.78,-112.94C755.96,-110.97 765.92,-109.04 774.85,-107.31"/>
<polygon fill="black" stroke="black" points="775.65,-110.72 784.8,-105.38 774.32,-103.85 775.65,-110.72"/>
</g>
<!-- 139963525464752+&#45;&gt;139963525464752 -->
<g id="edge2" class="edge">
<title>139963525464752+&#45;&gt;139963525464752</title>
<path fill="none" stroke="black" d="M545.17,-128.5C553.4,-128.5 563.01,-128.5 573.12,-128.5"/>
<polygon fill="black" stroke="black" points="573.37,-132 583.37,-128.5 573.37,-125 573.37,-132"/>
</g>
<!-- 139963525465328 -->
<g id="node7" class="node">
<title>139963525465328</title>
<polygon fill="none" stroke="black" points="1172.99,-82.5 1172.99,-118.5 1334.99,-118.5 1334.99,-82.5 1172.99,-82.5"/>
<text text-anchor="middle" x="1212.99" y="-96.8" font-family="Times,serif" font-size="14.00">data 0.1024</text>
<polyline fill="none" stroke="black" points="1252.99,-82.5 1252.99,-118.5 "/>
<text text-anchor="middle" x="1293.99" y="-96.8" font-family="Times,serif" font-size="14.00">grad 1.0000</text>
</g>
<!-- 139963525465328ReLU&#45;&gt;139963525465328 -->
<g id="edge3" class="edge">
<title>139963525465328ReLU&#45;&gt;139963525465328</title>
<path fill="none" stroke="black" d="M1137.14,-100.5C1144.97,-100.5 1153.76,-100.5 1162.9,-100.5"/>
<polygon fill="black" stroke="black" points="1162.92,-104 1172.92,-100.5 1162.92,-97 1162.92,-104"/>
</g>
<!-- 139963525472576 -->
<g id="node9" class="node">
<title>139963525472576</title>
<polygon fill="none" stroke="black" points="288.5,-55.5 288.5,-91.5 454.5,-91.5 454.5,-55.5 288.5,-55.5"/>
<text text-anchor="middle" x="328.5" y="-69.8" font-family="Times,serif" font-size="14.00">data 0.0665</text>
<polyline fill="none" stroke="black" points="368.5,-55.5 368.5,-91.5 "/>
<text text-anchor="middle" x="411.5" y="-69.8" font-family="Times,serif" font-size="14.00">grad &#45;2.0000</text>
</g>
<!-- 139963525464992* -->
<g id="node14" class="node">
<title>139963525464992*</title>
<ellipse fill="none" stroke="black" cx="518" cy="-73.5" rx="27" ry="18"/>
<text text-anchor="middle" x="518" y="-69.8" font-family="Times,serif" font-size="14.00">*</text>
</g>
<!-- 139963525472576&#45;&gt;139963525464992* -->
<g id="edge11" class="edge">
<title>139963525472576&#45;&gt;139963525464992*</title>
<path fill="none" stroke="black" d="M454.88,-73.5C463.96,-73.5 472.82,-73.5 480.87,-73.5"/>
<polygon fill="black" stroke="black" points="480.95,-77 490.95,-73.5 480.95,-70 480.95,-77"/>
</g>
<!-- 139963525474640 -->
<g id="node10" class="node">
<title>139963525474640</title>
<polygon fill="none" stroke="black" points="0,-83.5 0,-119.5 162,-119.5 162,-83.5 0,-83.5"/>
<text text-anchor="middle" x="40" y="-97.8" font-family="Times,serif" font-size="14.00">data 0.2355</text>
<polyline fill="none" stroke="black" points="80,-83.5 80,-119.5 "/>
<text text-anchor="middle" x="121" y="-97.8" font-family="Times,serif" font-size="14.00">grad 1.0000</text>
</g>
<!-- 139963525474640&#45;&gt;139963525464416* -->
<g id="edge7" class="edge">
<title>139963525474640&#45;&gt;139963525464416*</title>
<path fill="none" stroke="black" d="M162.13,-116.74C171.51,-118.52 180.67,-120.26 188.94,-121.83"/>
<polygon fill="black" stroke="black" points="188.43,-125.3 198.9,-123.73 189.73,-118.42 188.43,-125.3"/>
</g>
<!-- 139963525464416 -->
<g id="node11" class="node">
<title>139963525464416</title>
<polygon fill="none" stroke="black" points="290.5,-110.5 290.5,-146.5 452.5,-146.5 452.5,-110.5 290.5,-110.5"/>
<text text-anchor="middle" x="330.5" y="-124.8" font-family="Times,serif" font-size="14.00">data 0.2355</text>
<polyline fill="none" stroke="black" points="370.5,-110.5 370.5,-146.5 "/>
<text text-anchor="middle" x="411.5" y="-124.8" font-family="Times,serif" font-size="14.00">grad 1.0000</text>
</g>
<!-- 139963525464416&#45;&gt;139963525464752+ -->
<g id="edge14" class="edge">
<title>139963525464416&#45;&gt;139963525464752+</title>
<path fill="none" stroke="black" d="M452.78,-128.5C462.57,-128.5 472.16,-128.5 480.82,-128.5"/>
<polygon fill="black" stroke="black" points="480.88,-132 490.88,-128.5 480.88,-125 480.88,-132"/>
</g>
<!-- 139963525464416*&#45;&gt;139963525464416 -->
<g id="edge4" class="edge">
<title>139963525464416*&#45;&gt;139963525464416</title>
<path fill="none" stroke="black" d="M252.17,-128.5C260.4,-128.5 270.01,-128.5 280.12,-128.5"/>
<polygon fill="black" stroke="black" points="280.37,-132 290.37,-128.5 280.37,-125 280.37,-132"/>
</g>
<!-- 139963525464992 -->
<g id="node13" class="node">
<title>139963525464992</title>
<polygon fill="none" stroke="black" points="581,-55.5 581,-91.5 748,-91.5 748,-55.5 581,-55.5"/>
<text text-anchor="middle" x="623.5" y="-69.8" font-family="Times,serif" font-size="14.00">data &#45;0.1331</text>
<polyline fill="none" stroke="black" points="666,-55.5 666,-91.5 "/>
<text text-anchor="middle" x="707" y="-69.8" font-family="Times,serif" font-size="14.00">grad 1.0000</text>
</g>
<!-- 139963525464992&#45;&gt;139963525465232+ -->
<g id="edge12" class="edge">
<title>139963525464992&#45;&gt;139963525465232+</title>
<path fill="none" stroke="black" d="M748.3,-88.97C757.61,-90.71 766.68,-92.41 774.88,-93.94"/>
<polygon fill="black" stroke="black" points="774.27,-97.38 784.75,-95.78 775.56,-90.5 774.27,-97.38"/>
</g>
<!-- 139963525464992*&#45;&gt;139963525464992 -->
<g id="edge5" class="edge">
<title>139963525464992*&#45;&gt;139963525464992</title>
<path fill="none" stroke="black" d="M545.17,-73.5C552.75,-73.5 561.5,-73.5 570.74,-73.5"/>
<polygon fill="black" stroke="black" points="570.92,-77 580.92,-73.5 570.92,-70 570.92,-77"/>
</g>
<!-- 139963525470128 -->
<g id="node15" class="node">
<title>139963525470128</title>
<polygon fill="none" stroke="black" points="288,-0.5 288,-36.5 455,-36.5 455,-0.5 288,-0.5"/>
<text text-anchor="middle" x="330.5" y="-14.8" font-family="Times,serif" font-size="14.00">data &#45;2.0000</text>
<polyline fill="none" stroke="black" points="373,-0.5 373,-36.5 "/>
<text text-anchor="middle" x="414" y="-14.8" font-family="Times,serif" font-size="14.00">grad 0.0665</text>
</g>
<!-- 139963525470128&#45;&gt;139963525464992* -->
<g id="edge13" class="edge">
<title>139963525470128&#45;&gt;139963525464992*</title>
<path fill="none" stroke="black" d="M427.76,-36.54C436.9,-39.73 446.25,-43.12 455,-46.5 465.18,-50.44 476.15,-55.08 485.99,-59.39"/>
<polygon fill="black" stroke="black" points="484.82,-62.7 495.38,-63.55 487.66,-56.3 484.82,-62.7"/>
</g>
</g>
</svg>
