<?xml version="1.0" encoding="UTF-8" standalone="no"?>
<!DOCTYPE svg PUBLIC "-//W3C//DTD SVG 1.1//EN"
 "http://www.w3.org/Graphics/SVG/1.1/DTD/svg11.dtd">
<!-- Generated by graphviz version 2.44.0 (0)
 -->
<!-- Pages: 1 -->
<svg width="1558pt" height="210pt"
 viewBox="0.00 0.00 1557.59 210.00" xmlns="http://www.w3.org/2000/svg" xmlns:xlink="http://www.w3.org/1999/xlink">
<g id="graph0" class="graph" transform="scale(1 1) rotate(0) translate(4 206)">
<polygon fill="white" stroke="transparent" points="-4,4 -4,-206 1553.59,-206 1553.59,4 -4,4"/>
<!-- 139624087505408 -->
<g id="node1" class="node">
<title>139624087505408</title>
<polygon fill="none" stroke="black" points="330.5,-165.5 330.5,-201.5 539.5,-201.5 539.5,-165.5 330.5,-165.5"/>
<text text-anchor="middle" x="381" y="-179.8" font-family="Times-Roman" font-size="14.00">data 0.0665</text>
<polyline fill="none" stroke="black" points="431.5,-165.5 431.5,-201.5 "/>
<text text-anchor="middle" x="485.5" y="-179.8" font-family="Times-Roman" font-size="14.00">grad &#45;2.0000</text>
</g>
<!-- 139624087529408* -->
<g id="node15" class="node">
<title>139624087529408*</title>
<ellipse fill="none" stroke="black" cx="603" cy="-128.5" rx="27" ry="18"/>
<text text-anchor="middle" x="603" y="-124.8" font-family="Times-Roman" font-size="14.00">*</text>
</g>
<!-- 139624087505408&#45;&gt;139624087529408* -->
<g id="edge10" class="edge">
<title>139624087505408&#45;&gt;139624087529408*</title>
<path fill="none" stroke="black" d="M511.72,-165.46C521.32,-162.7 530.94,-159.7 540,-156.5 550.55,-152.78 561.78,-147.98 571.75,-143.41"/>
<polygon fill="black" stroke="black" points="573.28,-146.55 580.85,-139.13 570.31,-140.21 573.28,-146.55"/>
</g>
<!-- 139624087529504 -->
<g id="node2" class="node">
<title>139624087529504</title>
<polygon fill="none" stroke="black" points="1002,-82.5 1002,-118.5 1206,-118.5 1206,-82.5 1002,-82.5"/>
<text text-anchor="middle" x="1052.5" y="-96.8" font-family="Times-Roman" font-size="14.00">data 0.1024</text>
<polyline fill="none" stroke="black" points="1103,-82.5 1103,-118.5 "/>
<text text-anchor="middle" x="1154.5" y="-96.8" font-family="Times-Roman" font-size="14.00">grad 1.0000</text>
</g>
<!-- 139624087529600ReLU -->
<g id="node5" class="node">
<title>139624087529600ReLU</title>
<ellipse fill="none" stroke="black" cx="1275.8" cy="-100.5" rx="33.6" ry="18"/>
<text text-anchor="middle" x="1275.8" y="-96.8" font-family="Times-Roman" font-size="14.00">ReLU</text>
</g>
<!-- 139624087529504&#45;&gt;139624087529600ReLU -->
<g id="edge9" class="edge">
<title>139624087529504&#45;&gt;139624087529600ReLU</title>
<path fill="none" stroke="black" d="M1206.22,-100.5C1215.11,-100.5 1223.75,-100.5 1231.74,-100.5"/>
<polygon fill="black" stroke="black" points="1231.82,-104 1241.82,-100.5 1231.82,-97 1231.82,-104"/>
</g>
<!-- 139624087529504+ -->
<g id="node3" class="node">
<title>139624087529504+</title>
<ellipse fill="none" stroke="black" cx="939" cy="-100.5" rx="27" ry="18"/>
<text text-anchor="middle" x="939" y="-96.8" font-family="Times-Roman" font-size="14.00">+</text>
</g>
<!-- 139624087529504+&#45;&gt;139624087529504 -->
<g id="edge1" class="edge">
<title>139624087529504+&#45;&gt;139624087529504</title>
<path fill="none" stroke="black" d="M966.19,-100.5C973.66,-100.5 982.3,-100.5 991.54,-100.5"/>
<polygon fill="black" stroke="black" points="991.77,-104 1001.77,-100.5 991.77,-97 991.77,-104"/>
</g>
<!-- 139624087529600 -->
<g id="node4" class="node">
<title>139624087529600</title>
<polygon fill="none" stroke="black" points="1345.59,-82.5 1345.59,-118.5 1549.59,-118.5 1549.59,-82.5 1345.59,-82.5"/>
<text text-anchor="middle" x="1396.09" y="-96.8" font-family="Times-Roman" font-size="14.00">data 0.1024</text>
<polyline fill="none" stroke="black" points="1446.59,-82.5 1446.59,-118.5 "/>
<text text-anchor="middle" x="1498.09" y="-96.8" font-family="Times-Roman" font-size="14.00">grad 1.0000</text>
</g>
<!-- 139624087529600ReLU&#45;&gt;139624087529600 -->
<g id="edge2" class="edge">
<title>139624087529600ReLU&#45;&gt;139624087529600</title>
<path fill="none" stroke="black" d="M1309.94,-100.5C1317.66,-100.5 1326.31,-100.5 1335.41,-100.5"/>
<polygon fill="black" stroke="black" points="1335.43,-104 1345.43,-100.5 1335.43,-97 1335.43,-104"/>
</g>
<!-- 139624087529120 -->
<g id="node6" class="node">
<title>139624087529120</title>
<polygon fill="none" stroke="black" points="333,-55.5 333,-91.5 537,-91.5 537,-55.5 333,-55.5"/>
<text text-anchor="middle" x="383.5" y="-69.8" font-family="Times-Roman" font-size="14.00">data 0.2355</text>
<polyline fill="none" stroke="black" points="434,-55.5 434,-91.5 "/>
<text text-anchor="middle" x="485.5" y="-69.8" font-family="Times-Roman" font-size="14.00">grad 1.0000</text>
</g>
<!-- 139624087529312+ -->
<g id="node12" class="node">
<title>139624087529312+</title>
<ellipse fill="none" stroke="black" cx="603" cy="-73.5" rx="27" ry="18"/>
<text text-anchor="middle" x="603" y="-69.8" font-family="Times-Roman" font-size="14.00">+</text>
</g>
<!-- 139624087529120&#45;&gt;139624087529312+ -->
<g id="edge8" class="edge">
<title>139624087529120&#45;&gt;139624087529312+</title>
<path fill="none" stroke="black" d="M537.34,-73.5C547.42,-73.5 557.12,-73.5 565.8,-73.5"/>
<polygon fill="black" stroke="black" points="565.85,-77 575.85,-73.5 565.85,-70 565.85,-77"/>
</g>
<!-- 139624087529120* -->
<g id="node7" class="node">
<title>139624087529120*</title>
<ellipse fill="none" stroke="black" cx="267" cy="-73.5" rx="27" ry="18"/>
<text text-anchor="middle" x="267" y="-69.8" font-family="Times-Roman" font-size="14.00">*</text>
</g>
<!-- 139624087529120*&#45;&gt;139624087529120 -->
<g id="edge3" class="edge">
<title>139624087529120*&#45;&gt;139624087529120</title>
<path fill="none" stroke="black" d="M294.3,-73.5C302.55,-73.5 312.22,-73.5 322.57,-73.5"/>
<polygon fill="black" stroke="black" points="322.66,-77 332.66,-73.5 322.66,-70 322.66,-77"/>
</g>
<!-- 139624087457024 -->
<g id="node8" class="node">
<title>139624087457024</title>
<polygon fill="none" stroke="black" points="0,-83.5 0,-119.5 204,-119.5 204,-83.5 0,-83.5"/>
<text text-anchor="middle" x="50.5" y="-97.8" font-family="Times-Roman" font-size="14.00">data 0.2355</text>
<polyline fill="none" stroke="black" points="101,-83.5 101,-119.5 "/>
<text text-anchor="middle" x="152.5" y="-97.8" font-family="Times-Roman" font-size="14.00">grad 1.0000</text>
</g>
<!-- 139624087457024&#45;&gt;139624087529120* -->
<g id="edge13" class="edge">
<title>139624087457024&#45;&gt;139624087529120*</title>
<path fill="none" stroke="black" d="M204.38,-84.09C213.65,-82.49 222.56,-80.96 230.58,-79.58"/>
<polygon fill="black" stroke="black" points="231.3,-83.01 240.57,-77.87 230.12,-76.11 231.3,-83.01"/>
</g>
<!-- 139624087529216 -->
<g id="node9" class="node">
<title>139624087529216</title>
<polygon fill="none" stroke="black" points="330,-110.5 330,-146.5 540,-146.5 540,-110.5 330,-110.5"/>
<text text-anchor="middle" x="383.5" y="-124.8" font-family="Times-Roman" font-size="14.00">data &#45;2.0000</text>
<polyline fill="none" stroke="black" points="437,-110.5 437,-146.5 "/>
<text text-anchor="middle" x="488.5" y="-124.8" font-family="Times-Roman" font-size="14.00">grad 0.0665</text>
</g>
<!-- 139624087529216&#45;&gt;139624087529408* -->
<g id="edge14" class="edge">
<title>139624087529216&#45;&gt;139624087529408*</title>
<path fill="none" stroke="black" d="M540.19,-128.5C549.23,-128.5 557.92,-128.5 565.78,-128.5"/>
<polygon fill="black" stroke="black" points="565.93,-132 575.93,-128.5 565.93,-125 565.93,-132"/>
</g>
<!-- 139624087506272 -->
<g id="node10" class="node">
<title>139624087506272</title>
<polygon fill="none" stroke="black" points="333,-0.5 333,-36.5 537,-36.5 537,-0.5 333,-0.5"/>
<text text-anchor="middle" x="383.5" y="-14.8" font-family="Times-Roman" font-size="14.00">data 0.0000</text>
<polyline fill="none" stroke="black" points="434,-0.5 434,-36.5 "/>
<text text-anchor="middle" x="485.5" y="-14.8" font-family="Times-Roman" font-size="14.00">grad 1.0000</text>
</g>
<!-- 139624087506272&#45;&gt;139624087529312+ -->
<g id="edge12" class="edge">
<title>139624087506272&#45;&gt;139624087529312+</title>
<path fill="none" stroke="black" d="M511.72,-36.54C521.32,-39.3 530.94,-42.3 540,-45.5 550.55,-49.22 561.78,-54.02 571.75,-58.59"/>
<polygon fill="black" stroke="black" points="570.31,-61.79 580.85,-62.87 573.28,-55.45 570.31,-61.79"/>
</g>
<!-- 139624087529312 -->
<g id="node11" class="node">
<title>139624087529312</title>
<polygon fill="none" stroke="black" points="669,-55.5 669,-91.5 873,-91.5 873,-55.5 669,-55.5"/>
<text text-anchor="middle" x="719.5" y="-69.8" font-family="Times-Roman" font-size="14.00">data 0.2355</text>
<polyline fill="none" stroke="black" points="770,-55.5 770,-91.5 "/>
<text text-anchor="middle" x="821.5" y="-69.8" font-family="Times-Roman" font-size="14.00">grad 1.0000</text>
</g>
<!-- 139624087529312&#45;&gt;139624087529504+ -->
<g id="edge6" class="edge">
<title>139624087529312&#45;&gt;139624087529504+</title>
<path fill="none" stroke="black" d="M873.34,-89.98C883.73,-91.67 893.71,-93.3 902.59,-94.74"/>
<polygon fill="black" stroke="black" points="902.04,-98.2 912.47,-96.35 903.16,-91.29 902.04,-98.2"/>
</g>
<!-- 139624087529312+&#45;&gt;139624087529312 -->
<g id="edge4" class="edge">
<title>139624087529312+&#45;&gt;139624087529312</title>
<path fill="none" stroke="black" d="M630.3,-73.5C638.55,-73.5 648.22,-73.5 658.57,-73.5"/>
<polygon fill="black" stroke="black" points="658.66,-77 668.66,-73.5 658.66,-70 658.66,-77"/>
</g>
<!-- 139624091836768 -->
<g id="node13" class="node">
<title>139624091836768</title>
<polygon fill="none" stroke="black" points="0,-28.5 0,-64.5 204,-64.5 204,-28.5 0,-28.5"/>
<text text-anchor="middle" x="50.5" y="-42.8" font-family="Times-Roman" font-size="14.00">data 1.0000</text>
<polyline fill="none" stroke="black" points="101,-28.5 101,-64.5 "/>
<text text-anchor="middle" x="152.5" y="-42.8" font-family="Times-Roman" font-size="14.00">grad 0.2355</text>
</g>
<!-- 139624091836768&#45;&gt;139624087529120* -->
<g id="edge11" class="edge">
<title>139624091836768&#45;&gt;139624087529120*</title>
<path fill="none" stroke="black" d="M204.38,-63.29C213.65,-64.83 222.56,-66.3 230.58,-67.63"/>
<polygon fill="black" stroke="black" points="230.13,-71.11 240.57,-69.29 231.27,-64.2 230.13,-71.11"/>
</g>
<!-- 139624087529408 -->
<g id="node14" class="node">
<title>139624087529408</title>
<polygon fill="none" stroke="black" points="666,-110.5 666,-146.5 876,-146.5 876,-110.5 666,-110.5"/>
<text text-anchor="middle" x="719.5" y="-124.8" font-family="Times-Roman" font-size="14.00">data &#45;0.1331</text>
<polyline fill="none" stroke="black" points="773,-110.5 773,-146.5 "/>
<text text-anchor="middle" x="824.5" y="-124.8" font-family="Times-Roman" font-size="14.00">grad 1.0000</text>
</g>
<!-- 139624087529408&#45;&gt;139624087529504+ -->
<g id="edge7" class="edge">
<title>139624087529408&#45;&gt;139624087529504+</title>
<path fill="none" stroke="black" d="M876.19,-110.93C885.52,-109.35 894.47,-107.84 902.51,-106.49"/>
<polygon fill="black" stroke="black" points="903.26,-109.91 912.53,-104.8 902.09,-103.01 903.26,-109.91"/>
</g>
<!-- 139624087529408*&#45;&gt;139624087529408 -->
<g id="edge5" class="edge">
<title>139624087529408*&#45;&gt;139624087529408</title>
<path fill="none" stroke="black" d="M630.3,-128.5C637.76,-128.5 646.38,-128.5 655.6,-128.5"/>
<polygon fill="black" stroke="black" points="655.83,-132 665.83,-128.5 655.83,-125 655.83,-132"/>
</g>
</g>
</svg>
